# xmcd
#
# Track frame offsets: 
#        150
#        16242
#        31310
#        46050
#        62652
#        76845
#        91862
#        108272
#        125915
#        138942
#        154340
#        171897
#        188390
#        204780
#        220025
#        236950
#        253792
#
# Disc length: 3560 seconds
#
# Revision: 0
# Processed by: cddbd v1.5.1PL0 Copyright (c) Steve Scherf et al.
# Submitted via: ExactAudioCopy v0.95b2
#
DISCID=d90de611
DTITLE=Billy Dean - The Very Best of Billy Dean
DYEAR=2005
DGENRE=Country
TTITLE0=Only Here for a Little While
TTITLE1=Somewhere in My Broken Heart
TTITLE2=You Don't Count the Cost
TTITLE3=Only the Wind
TTITLE4=Billy the Kid
TTITLE5=If There Hadn't Been You
TTITLE6=Tryin' to Hide a Fire in the Dark
TTITLE7=I Wanna Take Care of You
TTITLE8=I'm Not Built That Way
TTITLE9=We Just Disagree
TTITLE10=Once in Awhile
TTITLE11=Cowboy Band
TTITLE12=Yesterday
TTITLE13=It's What I Do
TTITLE14=That Girl's Been Spying on Me
TTITLE15=Real Man
TTITLE16=Innocent Bystander
EXTD=
EXTT0=
EXTT1=
EXTT2=
EXTT3=
EXTT4=
EXTT5=
EXTT6=
EXTT7=
EXTT8=
EXTT9=
EXTT10=
EXTT11=
EXTT12=
EXTT13=
EXTT14=
EXTT15=
EXTT16=
PLAYORDER=
